# xmcd
#
# Track frame offsets: 
#        150
#        17702
#        31746
#        45129
#        61025
#        76170
#        95222
#        112111
#        127149
#        141889
#        153936
#        171179
#        185753
#        201866
#        213956
#        228854
#        245827
#        261173
#
# Disc length: 3678 seconds
#
# Revision: 0
# Processed by: cddbd v1.5.2PL0 Copyright (c) Steve Scherf et al.
# Submitted via: ExactAudioCopy v1.0b1
#
DISCID=f60e5c12
DTITLE=Various Artist - CDX Vol. 523 - May 9 2011
DYEAR=2011
DGENRE=Country
TTITLE0=Jason Aldean - Dirt Road Anthem
TTITLE1=Thompson Square - I Got You
TTITLE2=Margaret Durante - Maybe Tonight
TTITLE3=Rodney Atkins - Take A Back Road
TTITLE4=Joe Nichols - Take It Off
TTITLE5=Kacey Jones - Donald Trump's Hair
TTITLE6=David Frizzell - Good-Bye
TTITLE7=Jesse Keith Whitley - Kentucky Thunder
TTITLE8=Darren Warren - Cowboy Up and Party Down (Single Mix)
TTITLE9=Lee Allen - Hot Country Nights
TTITLE10=Darren Hincks - Keeping It Simple
TTITLE11=Becky Hobbs - Nanyehi
TTITLE12=Tony Douglas - One More Repossession
TTITLE13=David Wood - Ride The Wild West (Cowabunga)
TTITLE14=Tobi Gordon - Somebody Down Here Loves Me
TTITLE15=The McCymonts - Wrapped Up Good
TTITLE16=Charley Pride - America The Great
TTITLE17=Darren Warren - Cowboy Up and Party Down (Album Mix)
EXTD=
EXTT0=
EXTT1=
EXTT2=
EXTT3=
EXTT4=
EXTT5=
EXTT6=
EXTT7=
EXTT8=
EXTT9=
EXTT10=
EXTT11=
EXTT12=
EXTT13=
EXTT14=
EXTT15=
EXTT16=
EXTT17=
PLAYORDER=
